<svg xmlns="http://www.w3.org/2000/svg" viewBox="0 0 1200 1600" role="img" aria-label="Original fantasy portrait inspired by Kai">
  <defs>
    <linearGradient id="bg" x1="0" x2="1" y1="0" y2="1">
      <stop offset="0" stop-color="#121619"/>
      <stop offset=".44" stop-color="#41505b"/>
      <stop offset="1" stop-color="#d1a764"/>
    </linearGradient>
    <linearGradient id="armor" x1=".14" x2=".9" y1=".05" y2=".95">
      <stop offset="0" stop-color="#c8d3d1"/>
      <stop offset=".33" stop-color="#50606a"/>
      <stop offset=".72" stop-color="#171b1c"/>
      <stop offset="1" stop-color="#e5b65b"/>
    </linearGradient>
    <linearGradient id="blade" x1="0" x2="1">
      <stop offset="0" stop-color="#fff6d7"/>
      <stop offset=".55" stop-color="#9aa7a4"/>
      <stop offset="1" stop-color="#222827"/>
    </linearGradient>
    <filter id="blur"><feGaussianBlur stdDeviation="8"/></filter>
  </defs>
  <rect width="1200" height="1600" fill="url(#bg)"/>
  <path d="M0 1215 C216 1048 343 842 418 598 C513 286 692 131 1200 56 L1200 1600 L0 1600 Z" fill="#090b0c" opacity=".5"/>
  <path d="M462 345 C546 266 704 282 774 400 C846 521 804 682 684 734 C558 790 432 714 408 594 C390 500 404 399 462 345 Z" fill="#d7b198"/>
  <path d="M409 584 C397 424 473 297 608 286 C737 276 821 401 807 542 C739 486 648 460 539 482 C480 493 441 530 409 584 Z" fill="#1b1c1c"/>
  <path d="M488 684 C542 754 650 757 713 682 C728 785 776 862 882 926 C721 1038 483 1038 326 921 C422 861 477 782 488 684 Z" fill="#c89680"/>
  <path d="M294 928 C456 804 734 807 906 934 C1060 1048 1131 1273 1172 1600 L26 1600 C65 1270 138 1046 294 928 Z" fill="url(#armor)"/>
  <path d="M161 1600 C217 1283 350 1035 548 878 C526 1098 553 1346 646 1600 Z" fill="#9ca8a8" opacity=".52"/>
  <path d="M741 884 C814 1119 835 1372 806 1600 L1173 1600 C1125 1265 1010 1019 741 884 Z" fill="#141719" opacity=".82"/>
  <path d="M246 1138 C453 1238 703 1240 955 1130" fill="none" stroke="#d9aa55" stroke-width="28" opacity=".68"/>
  <path d="M242 1295 C422 1370 700 1385 958 1298" fill="none" stroke="#080a0b" stroke-width="18" opacity=".58"/>
  <path d="M895 110 L563 1510" stroke="url(#blade)" stroke-width="56" stroke-linecap="round"/>
  <path d="M916 116 L586 1512" stroke="#fff4d3" stroke-width="6" stroke-linecap="round" opacity=".72"/>
  <path d="M810 365 L957 401 L924 526 L775 491 Z" fill="#e0b65e"/>
  <g opacity=".28" filter="url(#blur)">
    <path d="M71 739 C279 662 495 646 747 705" fill="none" stroke="#f3c76a" stroke-width="10"/>
    <path d="M206 914 C441 831 689 854 1060 990" fill="none" stroke="#f3c76a" stroke-width="6"/>
    <path d="M304 241 C462 324 625 359 841 357" fill="none" stroke="#f3c76a" stroke-width="7"/>
  </g>
</svg>
