<svg xmlns="http://www.w3.org/2000/svg" viewBox="0 0 1200 1600" role="img" aria-label="Original fantasy portrait inspired by Sun Wukong">
  <defs>
    <linearGradient id="bg" x1="0" x2="1" y1="0" y2="1">
      <stop offset="0" stop-color="#211a12"/>
      <stop offset=".44" stop-color="#8a4d20"/>
      <stop offset="1" stop-color="#e1ba63"/>
    </linearGradient>
    <linearGradient id="cloth" x1=".15" x2=".88" y1=".08" y2=".95">
      <stop offset="0" stop-color="#ffd77b"/>
      <stop offset=".42" stop-color="#b93b22"/>
      <stop offset="1" stop-color="#19130e"/>
    </linearGradient>
    <radialGradient id="sun" cx=".65" cy=".24" r=".44">
      <stop offset="0" stop-color="#fff1a8"/>
      <stop offset=".38" stop-color="#e9812f" stop-opacity=".6"/>
      <stop offset="1" stop-color="#211a12" stop-opacity="0"/>
    </radialGradient>
    <filter id="blur"><feGaussianBlur stdDeviation="8"/></filter>
  </defs>
  <rect width="1200" height="1600" fill="url(#bg)"/>
  <circle cx="780" cy="340" r="300" fill="url(#sun)"/>
  <path d="M0 1200 C248 1026 365 790 430 571 C517 278 703 122 1200 39 L1200 1600 L0 1600 Z" fill="#100c09" opacity=".43"/>
  <path d="M470 326 C553 244 707 266 775 385 C851 519 795 689 666 740 C533 793 411 699 401 565 C393 459 410 385 470 326 Z" fill="#d49b78"/>
  <path d="M403 560 C385 407 472 277 612 264 C739 252 825 377 807 535 C744 469 649 444 538 470 C477 485 435 520 403 560 Z" fill="#2d1a12"/>
  <path d="M488 682 C545 753 651 753 712 681 C720 786 766 862 865 923 C712 1034 491 1029 336 915 C427 858 477 778 488 682 Z" fill="#bd8062"/>
  <path d="M305 922 C468 803 741 808 903 933 C1055 1050 1132 1281 1171 1600 L30 1600 C68 1280 145 1041 305 922 Z" fill="url(#cloth)"/>
  <path d="M168 1600 C231 1282 360 1038 554 878 C532 1102 557 1351 646 1600 Z" fill="#ffd77b" opacity=".4"/>
  <path d="M747 884 C820 1114 836 1362 807 1600 L1172 1600 C1125 1264 1018 1026 747 884 Z" fill="#17100c" opacity=".78"/>
  <path d="M222 1138 C443 1231 714 1228 964 1116" fill="none" stroke="#f6c55a" stroke-width="26" opacity=".72"/>
  <path d="M147 1345 C372 1413 655 1425 1000 1342" fill="none" stroke="#17100c" stroke-width="18" opacity=".55"/>
  <path d="M172 1033 L1042 684" stroke="#f4c556" stroke-width="52" stroke-linecap="round"/>
  <path d="M174 1034 L1045 686" stroke="#fff0ad" stroke-width="8" stroke-linecap="round" opacity=".78"/>
  <circle cx="1077" cy="671" r="44" fill="#f4c556"/>
  <circle cx="123" cy="1053" r="44" fill="#f4c556"/>
  <g opacity=".28" filter="url(#blur)">
    <path d="M72 724 C292 639 529 641 787 706" fill="none" stroke="#ffe29b" stroke-width="10"/>
    <path d="M209 906 C443 824 716 851 1063 976" fill="none" stroke="#ffe29b" stroke-width="6"/>
    <path d="M317 232 C473 312 641 344 854 339" fill="none" stroke="#ffe29b" stroke-width="7"/>
  </g>
</svg>
